<svg xmlns="http://www.w3.org/2000/svg" xml:space="preserve" id="logo" x="0" y="0" viewBox="297 99 296 417"><defs><style>@-webkit-keyframes dash{0%{stroke-dashoffset:2000}to{stroke-dashoffset:0}}.st0{fill:none;stroke:#fff;stroke-width:8;stroke-miterlimit:10;stroke-dasharray:2000;stroke-dashoffset:0;-webkit-animation:dash 5s linear infinite alternate}-webkit-animation: dash 5s linear infinite alternate;
				
			}
			@-webkit-keyframes dash{
				from{
					stroke-dashoffset: 2000;
				}
				to{
					stroke-dashoffset: 0;
				}
			}</style></defs><title>Instruo Logo</title><path d="M486.8 452h-18.5c-4.8 0-8.7-3.9-8.7-8.7V316.5c0-4.8 3.9-8.7 8.7-8.7h7.2c1.7 0 3.2-1.4 3.2-3.1 0-.7-.2-1.3-.6-1.9l-10.9-15.6c-.6-.8-1.6-1.3-2.6-1.4h-41.1c-5.2 0-9.4-4.2-9.4-9.5 0-1.9.6-3.8 1.7-5.4l10.5-15.7c1.8-2.6 4.7-4.1 7.8-4.1h12.5c5.9-.1 10.8 4.4 11.2 10.3.2 3-.9 6-3 8.2s-4.9 3.4-8 3.4c-1.7 0-3.1-1.4-3.1-3.1s1.4-3.1 3.1-3.1c2.6 0 4.6-2.1 4.6-4.6v-.3c-.3-2.5-2.4-4.4-4.9-4.3H434c-1 0-2 .5-2.6 1.4L421 274.6c-1 1.4-.7 3.4.7 4.4.5.4 1.2.6 1.9.6h41.1c3.1 0 6 1.5 7.8 4l10.9 15.6c3 4.3 1.9 10.2-2.4 13.2-1.6 1.1-3.5 1.7-5.4 1.7h-7.2c-1.3 0-2.4 1.1-2.4 2.4v126.9c0 1.3 1.1 2.4 2.4 2.4h18.5c1.7 0 3.1-1.4 3.1-3.1v-26.2c.8-25.5 12.8-49.3 32.9-65 .5-.4 1.1-.9 1.6-1.3 31.8-24.6 50.4-62.5 50.6-102.7.2-35.1-13.6-68.3-39-93.5-24.9-24.7-57.6-38.3-92.1-38.3h-1.7c-71.3.9-129.3 59.7-129.3 131 0 1.7-1.4 3.2-3.1 3.2s-3.1-1.4-3.1-3.2c0-75.1 60.4-136.3 135.5-137.3h1.8c36.2 0 70.4 14.2 96.5 40.1 26.5 26.3 41 61.1 40.8 98-.1 42.2-19.7 81.9-53.1 107.7l-.1.1c-.5.4-1 .7-1.5 1.1-18.6 14.5-29.8 36.6-30.5 60.2v26.1c0 5.1-4.2 9.3-9.4 9.3z" class="st0"/><path d="M456.4 502.4h-27.1c-1.7 0-3.1-1.4-3.1-3.2 0-1.7 1.4-3.1 3.1-3.1h27.1c1.7 0 3.1-1.4 3.1-3.2 0-1.7-1.4-3.1-3.1-3.1h-56.1c-5.2 0-9.5-4.2-9.5-9.5 0-5.2 4.2-9.5 9.5-9.5h86.4c1.7 0 3.1-1.4 3.1-3.2 0-1.7-1.4-3.1-3.1-3.1H400c-5.1 0-9.2-4.1-9.2-9.2v-.4c.2-5.2 4.5-9.3 9.7-9.3l22.5.2c1.7 0 3.1-1.4 3.1-3.1V316.5c0-1.3-1.1-2.4-2.4-2.4h-12.1c-4.7 0-8.4-3.8-8.4-8.4 0-2 .7-3.9 2-5.5l4.4-5.1c1.1-1.3 3.1-1.5 4.4-.4s1.5 3.1.4 4.4l-.1.1-4.4 5.1c-.8.9-.7 2.2.2 3 .4.3.9.5 1.4.5h12.2c4.8 0 8.7 3.9 8.7 8.7v126.4c0 5.2-4.2 9.4-9.5 9.5h.1l-22.5-.2c-1.8 0-3.2 1.4-3.3 3.2-.1 1.6 1.1 3 2.7 3.1h86.9c5.2 0 9.5 4.2 9.5 9.5 0 5.2-4.2 9.5-9.5 9.5h-86.4c-1.7 0-3.1 1.4-3.1 3.2 0 1.7 1.4 3.1 3.1 3.1h56.1c5.2 0 9.5 4.2 9.5 9.5-.1 4.9-4.4 9.1-9.6 9.1z" class="st0"/><path d="M255.9 606.2c-.7-.7-1-1.7-1-2.7V547c0-1 .3-2 1-2.7 1.5-1.4 3.9-1.4 5.4 0 .7.7 1 1.7 1 2.7v56.5c0 1-.3 2-1 2.7-1.5 1.4-3.8 1.4-5.4 0M327.6 544.2q.9 1.2.9 2.7v56.5c0 1-.3 2-.9 2.7-.7.7-1.7 1.1-2.6 1-1.2 0-2.3-.6-3-1.5L284.8 556v47.5c0 1-.3 2-.9 2.7-.7.7-1.6 1.1-2.6 1-.9.1-1.9-.3-2.5-1q-.9-1.2-.9-2.7V547c0-1 .3-2 .9-2.7.7-.7 1.7-1.1 2.6-1 1.2 0 2.3.6 3 1.5l37.1 49.7V547c0-1 .3-2 .9-2.7.7-.7 1.6-1.1 2.6-1 1-.1 1.9.2 2.6.9M351.4 605.5c-3.6-1.1-7-2.9-9.8-5.4-.9-.8-1.4-1.9-1.3-3.1 0-.8.2-1.6.7-2.2.4-.6 1-.9 1.7-.9.9.1 1.8.4 2.5 1 5.4 4.3 12.1 6.5 19 6.5 5.1 0 9.1-1 11.8-3 2.7-1.9 4.3-5.1 4.1-8.4.1-1.9-.7-3.7-2-5.1-1.5-1.4-3.3-2.4-5.2-3.1q-4.2-1.5-8.7-2.4-6.15-1.35-12-3.6c-2.9-1.1-5.6-3-7.6-5.4-2-2.6-3.1-5.8-2.9-9.1-.1-3.4 1-6.7 2.9-9.5 2.1-2.9 4.9-5.1 8.1-6.5 3.8-1.6 7.9-2.4 12-2.3 4 0 7.9.6 11.7 1.9 3.4 1.2 6.5 3 9.1 5.5.9.8 1.4 1.9 1.4 3.1 0 .8-.2 1.6-.7 2.2-.4.6-1 .9-1.7.9-.9-.1-1.8-.4-2.6-1-2.4-2.1-5.2-3.8-8.1-5-2.9-1-5.9-1.5-9-1.4-5 0-8.8 1-11.6 3.1-2.8 2-4.4 5.3-4.2 8.7-.2 2.9 1.2 5.6 3.6 7.1q3.6 2.4 11.1 4.2c5.4 1.3 9.7 2.5 12.8 3.6 3 1 5.6 2.7 7.8 5 2.1 2.4 3.3 5.6 3.1 8.9.1 3.3-1 6.6-2.9 9.3-2.1 2.8-4.9 5-8.2 6.3-3.8 1.6-8 2.3-12.1 2.2-4.3 0-8.7-.7-12.8-2.1M414.3 606.2c-.7-.7-1.1-1.7-1-2.7v-53.6H394c-.9.1-1.8-.2-2.5-.8-1.2-1.3-1.2-3.3 0-4.7.7-.6 1.6-.9 2.5-.8h46c.9-.1 1.8.2 2.5.8 1.2 1.3 1.2 3.3 0 4.7-.7.6-1.6.9-2.5.8h-19.3v53.6c0 1-.3 2-1 2.7s-1.7 1.1-2.7 1c-1 .1-2-.3-2.7-1M500.4 604.3c0 .8-.3 1.7-1 2.2-1.6 1.3-4 1.1-5.3-.5-.1-.1-.2-.3-.3-.4l-12-19q-1.8-3.15-4.8-5.1c-2.1-1-4.5-1.5-6.8-1.4h-11.3v23.4c0 1-.3 2-1 2.7s-1.6 1-2.6 1c-1 .1-2-.3-2.7-1s-1-1.7-1-2.7v-56.3c0-1 .3-1.9 1-2.6s1.7-1 2.7-1h22.2c6.9 0 12.1 1.5 15.7 4.6 3.6 3 5.4 7.5 5.4 13.4 0 5-1.4 9-4.3 12.1-2.9 3-7 4.9-12.4 5.5 1.5.5 2.8 1.3 4 2.3q2.1 1.95 3.6 4.5l10.2 16.1c.4.7.7 1.5.7 2.2M476.9 574c4.9 0 8.6-1 11-3s3.7-5.1 3.6-9.2q0-6.15-3.6-9c-3.6-2.85-6.1-2.9-11-3h-18.1V574zM518.9 601.1c-4.2-4.3-6.4-10.6-6.4-19V547c0-1 .3-2 1-2.7s1.7-1.1 2.7-1c1 0 1.9.3 2.6 1s1 1.7 1 2.7v35.7c0 6.2 1.5 10.8 4.5 13.9s7.4 4.7 13.3 4.7 10.3-1.6 13.3-4.7 4.5-7.7 4.5-13.9V547c-.1-1 .3-2 1-2.7 1.5-1.4 3.8-1.4 5.3 0 .7.7 1 1.7 1 2.7v35.1c0 8.3-2.1 14.6-6.4 19-4.3 4.3-10.5 6.5-18.7 6.5-8.2-.1-14.4-2.2-18.7-6.5M589 603.6c-4.4-2.7-7.8-6.6-10-11.2-2.4-5.4-3.6-11.2-3.5-17.1-.1-5.9 1.1-11.9 3.5-17.3 2.1-4.7 5.6-8.6 9.9-11.2 9.6-5.2 21.1-5.2 30.7 0 4.4 2.6 7.8 6.5 9.9 11.2 2.4 5.4 3.6 11.2 3.5 17.2.1 5.9-1.1 11.8-3.5 17.2-2.1 4.7-5.6 8.6-10 11.2-9.4 5.2-21 5.2-30.5 0m30.9-9.1c3.7-4.5 5.6-10.9 5.6-19.3s-1.8-14.8-5.5-19.3-8.9-6.7-15.7-6.7-12 2.3-15.7 6.8-5.6 10.9-5.6 19.2 1.9 14.7 5.6 19.3c3.7 4.5 8.9 6.8 15.6 6.8 6.8 0 12-2.3 15.7-6.8"/></svg>